<svg width="28" height="28" viewBox="0 0 28 28" fill="none" xmlns="http://www.w3.org/2000/svg">
<g clip-path="url(#clip0)">
<path d="M27.946 15.2934C27.6946 12.7647 26.5649 10.3808 24.7649 8.58072C23.2266 7.0425 21.3438 6.05401 19.3627 5.61448V4.22495C20.1719 4.02365 20.7733 3.29121 20.7733 2.42062C20.7733 1.39533 19.9392 0.561218 18.9139 0.561218H14.9764C13.9511 0.561218 13.1169 1.39533 13.1169 2.42062C13.1169 3.29115 13.7184 4.02359 14.5275 4.22495V5.61836C12.5525 6.05975 10.6759 7.04687 9.14198 8.58077C8.8063 8.91645 8.49677 9.26859 8.21343 9.63456C8.1997 9.63352 8.18597 9.63249 8.17197 9.63249H4.27482C3.97284 9.63249 3.72794 9.87733 3.72794 10.1794C3.72794 10.4814 3.97284 10.7263 4.27482 10.7263H7.46928C7.06831 11.3976 6.74499 12.1025 6.49889 12.8283H0.546884C0.244894 12.8283 0 13.0731 0 13.3751C0 13.6772 0.244894 13.922 0.546884 13.922H6.18985C6.03224 14.6139 5.94178 15.318 5.91843 16.0241H3.50005C3.19807 16.0241 2.95317 16.2689 2.95317 16.571C2.95317 16.873 3.19807 17.1178 3.50005 17.1178H5.93587C5.98203 17.8257 6.09584 18.5299 6.27735 19.2199H2.73442C2.43243 19.2199 2.18753 19.4647 2.18753 19.7668C2.18753 20.0688 2.43243 20.3137 2.73442 20.3137H6.62637C7.16286 21.7329 8.00129 23.0631 9.14198 24.2038C10.9437 26.0055 13.3301 27.1355 15.8614 27.3856C16.2227 27.4212 16.5842 27.4389 16.9453 27.4389C19.0793 27.4389 21.1863 26.8213 22.974 25.6571C23.2271 25.4923 23.2987 25.1535 23.1339 24.9004C22.9691 24.6473 22.6303 24.5757 22.3772 24.7405C18.4638 27.2888 13.2229 26.7379 9.91538 23.4304C6.03459 19.5496 6.03459 13.2351 9.91538 9.35423C13.7961 5.47349 20.1106 5.47349 23.9915 9.35423C27.2946 12.6574 27.8486 17.8939 25.3087 21.8053C25.1442 22.0586 25.2162 22.3973 25.4695 22.5618C25.7229 22.7263 26.0615 22.6543 26.226 22.401C27.583 20.311 28.1939 17.7869 27.946 15.2934ZM14.2107 2.42068C14.2107 1.99848 14.5542 1.65504 14.9764 1.65504H18.9139C19.3361 1.65504 19.6796 1.99848 19.6796 2.42068C19.6796 2.84287 19.3361 3.18631 18.9139 3.18631H18.8158H15.0744H14.9764C14.5542 3.18631 14.2107 2.84282 14.2107 2.42068ZM15.6213 5.43034V4.28008H18.2689V5.42837C17.3897 5.32381 16.5003 5.32446 15.6213 5.43034Z" fill="#B3BACE"/>
<path d="M24.3784 23.2699C24.234 23.2699 24.0935 23.3284 23.9918 23.4301C23.8896 23.5318 23.8315 23.6729 23.8315 23.8168C23.8315 23.9606 23.8896 24.1017 23.9918 24.2034C24.0935 24.3057 24.2341 24.3636 24.3784 24.3636C24.5222 24.3636 24.6628 24.3057 24.7651 24.2034C24.8668 24.1017 24.9253 23.9606 24.9253 23.8168C24.9253 23.6729 24.8668 23.5318 24.7651 23.4301C24.6628 23.3284 24.5222 23.2699 24.3784 23.2699Z" fill="#B3BACE"/>
<path d="M16.9535 7.90845C12.2755 7.90845 8.46973 11.7142 8.46973 16.3922C8.46973 21.0702 12.2755 24.8759 16.9535 24.8759C21.6314 24.8759 25.4372 21.0702 25.4372 16.3922C25.4372 11.7142 21.6314 7.90845 16.9535 7.90845ZM16.9535 23.7822C12.8786 23.7822 9.56349 20.467 9.56349 16.3922C9.56349 12.3174 12.8786 9.00221 16.9535 9.00221C21.0284 9.00221 24.3435 12.3174 24.3435 16.3922C24.3435 20.467 21.0284 23.7822 16.9535 23.7822Z" fill="#B3BACE"/>
<path d="M20.4129 12.1594L17.7042 14.8681C17.4777 14.7561 17.2229 14.6928 16.9536 14.6928C16.6842 14.6928 16.4294 14.7561 16.2029 14.8681L14.9906 13.6558C14.777 13.4423 14.4308 13.4423 14.2172 13.6558C14.0036 13.8694 14.0036 14.2157 14.2172 14.4292L15.4295 15.6415C15.3174 15.868 15.2542 16.1228 15.2542 16.3921C15.2542 17.3292 16.0165 18.0915 16.9536 18.0915C17.8906 18.0915 18.6529 17.3292 18.6529 16.3921C18.6529 16.1228 18.5897 15.868 18.4777 15.6415L21.1069 13.0123L21.1863 12.9328C21.3999 12.7193 21.3999 12.373 21.1863 12.1594C20.9728 11.9459 20.6266 11.9459 20.4129 12.1594ZM16.9536 16.9978C16.6196 16.9978 16.3479 16.7261 16.3479 16.3922C16.3479 16.0583 16.6196 15.7866 16.9536 15.7866C17.2875 15.7866 17.5592 16.0583 17.5592 16.3922C17.5592 16.7261 17.2875 16.9978 16.9536 16.9978Z" fill="#B3BACE"/>
<path d="M22.8007 15.852H22.2941C21.9921 15.852 21.7472 16.0968 21.7472 16.3989C21.7472 16.7009 21.9921 16.9457 22.2941 16.9457H22.8007C23.1027 16.9457 23.3476 16.7009 23.3476 16.3989C23.3476 16.0968 23.1027 15.852 22.8007 15.852Z" fill="#B3BACE"/>
<path d="M11.6128 15.8387H11.1062C10.8042 15.8387 10.5593 16.0835 10.5593 16.3856C10.5593 16.6876 10.8042 16.9324 11.1062 16.9324H11.6128C11.9148 16.9324 12.1597 16.6876 12.1597 16.3856C12.1597 16.0835 11.9148 15.8387 11.6128 15.8387Z" fill="#B3BACE"/>
<path d="M16.9601 11.5985C17.2621 11.5985 17.507 11.3536 17.507 11.0516V10.545C17.507 10.2429 17.2621 9.99811 16.9601 9.99811C16.6581 9.99811 16.4132 10.2429 16.4132 10.545V11.0516C16.4132 11.3536 16.6581 11.5985 16.9601 11.5985Z" fill="#B3BACE"/>
<path d="M16.9468 21.1859C16.6448 21.1859 16.3999 21.4307 16.3999 21.7328V22.2394C16.3999 22.5414 16.6448 22.7863 16.9468 22.7863C17.2488 22.7863 17.4937 22.5414 17.4937 22.2394V21.7328C17.4937 21.4307 17.2488 21.1859 16.9468 21.1859Z" fill="#B3BACE"/>
<path d="M0.546875 19.2197C0.403047 19.2197 0.261953 19.2782 0.160234 19.38C0.0585156 19.4817 0 19.6228 0 19.7666C0 19.911 0.0584609 20.0515 0.160234 20.1532C0.262008 20.255 0.403047 20.3135 0.546875 20.3135C0.690703 20.3135 0.831797 20.255 0.933461 20.1532C1.03518 20.0515 1.09375 19.9104 1.09375 19.7666C1.09375 19.6228 1.03523 19.4817 0.933461 19.38C0.831797 19.2782 0.690703 19.2197 0.546875 19.2197Z" fill="#B3BACE"/>
</g>
<defs>
<clipPath id="clip0">
<rect width="28" height="28" fill="white"/>
</clipPath>
</defs>
</svg>
