<svg width="32" height="32" viewBox="0 0 32 32" fill="none" xmlns="http://www.w3.org/2000/svg">
<path d="M16 9.59998C14.8218 9.59998 13.8667 10.5551 13.8667 11.7333V29.8666C13.8667 31.0448 14.8218 32 16 32C17.1782 32 18.1334 31.0448 18.1334 29.8666V11.7333C18.1334 10.5551 17.1782 9.59998 16 9.59998ZM17.0667 29.8666C17.0667 30.4558 16.5892 30.9333 16 30.9333C15.4109 30.9333 14.9334 30.4558 14.9334 29.8666V11.7333C14.9334 11.1442 15.4109 10.6666 16 10.6666C16.5892 10.6666 17.0667 11.1442 17.0667 11.7333V29.8666Z" fill="#B3BACE"/>
<path d="M9.06668 16C7.88848 16 6.93335 16.9551 6.93335 18.1333V29.8667C6.93335 31.0449 7.88848 32 9.06668 32C10.2449 32 11.2 31.0449 11.2 29.8667V18.1333C11.2 16.9551 10.2449 16 9.06668 16ZM10.1333 29.8667C10.1333 30.4558 9.65582 30.9333 9.06668 30.9333C8.47755 30.9333 8.00002 30.4558 8.00002 29.8667V18.1333C8.00002 17.5442 8.47755 17.0667 9.06668 17.0667C9.65582 17.0667 10.1333 17.5442 10.1333 18.1333V29.8667Z" fill="#B3BACE"/>
<path d="M2.13333 23.4667C0.955133 23.4667 0 24.4218 0 25.6V29.8667C0 31.0449 0.955133 32 2.13333 32C3.31153 32 4.26667 31.0449 4.26667 29.8667V25.6C4.26667 24.4218 3.31153 23.4667 2.13333 23.4667ZM3.2 29.8667C3.2 30.4558 2.72247 30.9333 2.13333 30.9333C1.5442 30.9333 1.06667 30.4558 1.06667 29.8667V25.6C1.06667 25.0109 1.5442 24.5333 2.13333 24.5333C2.72247 24.5333 3.2 25.0109 3.2 25.6V29.8667Z" fill="#B3BACE"/>
</svg>
