<svg width="24" height="24" viewBox="0 0 24 24" fill="none" xmlns="http://www.w3.org/2000/svg">
<g clip-path="url(#clip0)">
<path d="M7.67234 3.73497C7.99235 3.40377 8.52496 3.40377 8.85616 3.73497C9.17618 4.05499 9.17618 4.5876 8.85616 4.90686L2.8535 10.9095H22.6615C23.1232 10.9103 23.4902 11.2773 23.4902 11.739C23.4902 12.2008 23.1232 12.5797 22.6615 12.5797H2.8535L8.85616 18.5712C9.17618 18.9024 9.17618 19.4358 8.85616 19.755C8.52496 20.0862 7.99161 20.0862 7.67234 19.755L0.248636 12.3313C-0.0825672 12.0113 -0.0825672 11.4787 0.248636 11.1594L7.67234 3.73497Z" fill="white"/>
</g>
<defs>
<clipPath id="clip0">
<rect width="23.49" height="23.49" fill="white" transform="matrix(-1 0 0 1 23.4902 0)"/>
</clipPath>
</defs>
</svg>
