<svg width="23" height="23" viewBox="0 0 23 23" fill="none" xmlns="http://www.w3.org/2000/svg">
<g clip-path="url(#clip0)">
<path d="M21.4559 17.2479C19.9207 19.9069 17.4419 21.809 14.4761 22.6037C11.5103 23.3984 8.41255 22.9906 5.7534 21.4553C3.0943 19.9201 1.19226 17.4413 0.397591 14.4754C-0.397077 11.5097 0.0107691 8.41184 1.54597 5.75283C3.08113 3.09381 5.56001 1.19169 8.5258 0.39702C9.51615 0.131622 10.5211 0.000362396 11.5197 0.000362396C13.5115 0.000362396 15.4773 0.522757 17.2485 1.54536C19.9075 3.08056 21.8096 5.55935 22.6043 8.52518C23.399 11.4911 22.9911 14.5888 21.4559 17.2479ZM21.4479 8.83501C20.736 6.17806 19.032 3.95735 16.6498 2.58202C14.2677 1.20665 11.4925 0.841343 8.83558 1.55317C6.17859 2.26509 3.95792 3.96907 2.58255 6.35128C1.20722 8.73339 0.841869 11.5086 1.55384 14.1656C2.2658 16.8226 3.96978 19.0432 6.35194 20.4186C7.93881 21.3348 9.6997 21.8027 11.4842 21.8027C12.3786 21.8027 13.2793 21.6851 14.1661 21.4474C16.8231 20.7355 19.0438 19.0316 20.4191 16.6493C21.7945 14.2672 22.1599 11.492 21.4479 8.83501Z" fill="#B3BACE"/>
<path d="M17.0155 12.5848L9.62469 16.8519C9.23247 17.0784 8.76421 17.0783 8.372 16.852C7.97978 16.6256 7.74561 16.22 7.74561 15.7671V7.23284C7.74561 6.77998 7.97974 6.37443 8.372 6.14798C8.56808 6.03473 8.78312 5.97817 8.99825 5.97817C9.21343 5.97817 9.42856 6.03486 9.62464 6.14802L17.0155 10.4151C17.4077 10.6416 17.6418 11.0472 17.6418 11.5C17.6418 11.9528 17.4077 12.3584 17.0155 12.5848ZM16.4169 11.4518L9.02601 7.18469C9.01698 7.17943 8.99816 7.1686 8.97049 7.18469C8.94273 7.20072 8.94273 7.22237 8.94273 7.2328V15.7671C8.94273 15.7775 8.94273 15.7991 8.97049 15.8152C8.98136 15.8215 8.99084 15.8236 8.99893 15.8236C9.0115 15.8236 9.02058 15.8184 9.0261 15.8152L16.4169 11.548C16.426 11.5428 16.4447 11.532 16.4447 11.4999C16.4447 11.4679 16.4259 11.457 16.4169 11.4518Z" fill="#B3BACE"/>
<path d="M18.5663 16.9608C17.1427 18.7998 15.0028 20.0353 12.695 20.3506C12.3679 20.3954 12.0657 20.1662 12.021 19.8385C11.9763 19.511 12.2055 19.2092 12.533 19.1644C14.5326 18.8913 16.3866 17.8209 17.6196 16.2279C17.7376 16.0756 17.9145 15.9958 18.0934 15.9958C18.2213 15.9958 18.3503 16.0366 18.4593 16.1211C18.7207 16.3234 18.7686 16.6994 18.5663 16.9608Z" fill="#B3BACE"/>
</g>
<defs>
<clipPath id="clip0">
<rect width="23" height="23" fill="white" transform="matrix(1 0 0 -1 0 23)"/>
</clipPath>
</defs>
</svg>
