<svg width="20" height="20" viewBox="0 0 20 20" fill="none" xmlns="http://www.w3.org/2000/svg">
<path d="M10 0C4.486 0 0 4.48567 0 10C0 13.2239 1.56773 16.2656 4.19333 18.1361C4.49247 18.3483 4.90853 18.2799 5.123 17.9798C5.33653 17.6803 5.26687 17.2637 4.96673 17.0501C2.69173 15.4291 1.33333 12.7936 1.33333 10C1.33333 5.22133 5.221 1.33333 10 1.33333C14.779 1.33333 18.6667 5.22133 18.6667 10C18.6667 12.7936 17.3083 15.4291 15.0332 17.0501C14.7331 17.2637 14.6634 17.6803 14.8769 17.9798C15.0071 18.1627 15.2122 18.2597 15.4205 18.2597C15.5543 18.2597 15.6894 18.2194 15.8066 18.1361C18.4323 16.2656 20 13.2239 20 10C20 4.48567 15.514 0 10 0Z" fill="#B3BACE"/>
<path d="M17.3337 10C17.3337 5.95642 14.0439 2.66669 10.0003 2.66669C5.95672 2.66669 2.66699 5.95642 2.66699 10C2.66699 12.3626 3.81573 14.5918 5.74026 15.9629C6.03973 16.1752 6.45606 16.1061 6.66993 15.8066C6.88346 15.5072 6.81379 15.0905 6.51366 14.877C4.93979 13.7559 4.00033 11.9323 4.00033 10C4.00033 6.69142 6.69206 4.00002 10.0003 4.00002C13.3086 4.00002 16.0003 6.69142 16.0003 10C16.0003 11.9323 15.0609 13.7559 13.487 14.877C13.1869 15.0905 13.1172 15.5072 13.3307 15.8066C13.4609 15.9896 13.666 16.0866 13.8743 16.0866C14.0081 16.0866 14.1432 16.0462 14.2604 15.9629C16.1849 14.5918 17.3337 12.3626 17.3337 10Z" fill="#B3BACE"/>
<path d="M13.9994 9.99994C13.9994 7.79421 12.2051 5.99994 9.99939 5.99994C7.79366 5.99994 5.99939 7.79421 5.99939 9.99994C5.99939 11.9781 7.44399 13.6208 9.33272 13.9397V19.3333C9.33272 19.7017 9.63126 19.9999 9.99939 19.9999C10.3675 19.9999 10.6661 19.7017 10.6661 19.3333V13.9397C12.5548 13.6208 13.9994 11.9781 13.9994 9.99994ZM9.99939 12.6666C8.52899 12.6666 7.33272 11.4707 7.33272 9.99994C7.33272 8.5292 8.52899 7.33327 9.99939 7.33327C11.4698 7.33327 12.6661 8.5292 12.6661 9.99994C12.6661 11.4707 11.4698 12.6666 9.99939 12.6666Z" fill="#B3BACE"/>
</svg>
