<svg width="30" height="30" viewBox="0 0 30 30"  xmlns="http://www.w3.org/2000/svg">
<path d="M27.7219 13.6926C27.495 13.4016 27.0753 13.3499 26.7842 13.5766C26.4933 13.8036 26.4414 14.2234 26.6683 14.5144C26.8913 14.8004 26.8913 15.1998 26.6683 15.4858C25.034 17.5811 22.9195 19.1556 20.5389 20.1076C21.7901 18.7679 22.5562 16.9715 22.5562 15.0001C22.5562 13.0364 21.7965 11.2464 20.556 9.90958C21.9315 10.4627 23.2246 11.2228 24.3822 12.172C24.5259 12.2897 24.6691 12.4119 24.8082 12.535C25.0845 12.7796 25.5067 12.7539 25.7513 12.4777C25.9959 12.2015 25.9702 11.7792 25.694 11.5346C25.5424 11.4002 25.386 11.2671 25.2294 11.1387C22.3736 8.79729 18.7633 7.50781 15.0638 7.50781C10.0848 7.50781 5.47114 9.76209 2.40563 13.6926C1.80522 14.4625 1.80522 15.5378 2.40563 16.3077C5.47114 20.2382 10.0848 22.4925 15.0638 22.4925C20.0426 22.4925 24.6563 20.2382 27.7219 16.3077C28.3224 15.5377 28.3224 14.4624 27.7219 13.6926ZM3.4593 15.4858C3.23628 15.1998 3.23628 14.8004 3.4593 14.5144C5.09319 12.4194 7.2073 10.8451 9.58741 9.89306C8.33753 11.2321 7.5713 13.0278 7.5713 15.0001C7.5713 16.9716 8.33747 18.768 9.58736 20.1071C7.2073 19.155 5.09314 17.5808 3.4593 15.4858ZM15.0719 21.1561C15.0692 21.1561 15.0665 21.1561 15.0638 21.1561C15.0611 21.1561 15.0585 21.1561 15.0557 21.1561C11.6647 21.1517 8.90754 18.392 8.90754 15.0001C8.90754 11.6081 11.6647 8.84842 15.0557 8.84405C15.0584 8.84405 15.0611 8.84399 15.0638 8.84399C15.0659 8.84399 15.068 8.84405 15.07 8.84405C18.4619 8.84738 21.22 11.6074 21.22 15.0001C21.22 18.392 18.4629 21.1517 15.0719 21.1561Z" />
<path d="M15.0637 12.165C13.5003 12.165 12.2287 13.4367 12.2287 15C12.2287 16.5634 13.5003 17.835 15.0637 17.835C16.627 17.835 17.8987 16.5634 17.8987 15C17.8987 13.4367 16.627 12.165 15.0637 12.165ZM15.0637 16.4988C14.2374 16.4988 13.5649 15.8263 13.5649 15C13.5649 14.1738 14.2374 13.5013 15.0637 13.5013C15.8899 13.5013 16.5624 14.1738 16.5624 15C16.5624 15.8263 15.8899 16.4988 15.0637 16.4988Z" />
<path d="M15.0638 1C14.6947 1 14.3957 1.29909 14.3957 1.66812V4.17351C14.3957 4.54255 14.6947 4.84163 15.0638 4.84163C15.4328 4.84163 15.7319 4.54255 15.7319 4.17351V1.66812C15.7319 1.29909 15.4328 1 15.0638 1Z" />
<path d="M15.0638 25.1583C14.6947 25.1583 14.3957 25.4574 14.3957 25.8264V28.3318C14.3957 28.7009 14.6947 29 15.0638 29C15.4328 29 15.7319 28.7009 15.7319 28.3318V25.8264C15.7319 25.4574 15.4327 25.1583 15.0638 25.1583Z" />
<path d="M24.9633 5.10043C24.7024 4.83957 24.2794 4.83957 24.0183 5.10043L22.7717 6.34703C22.5108 6.60795 22.5108 7.03095 22.7717 7.29198C22.9022 7.42241 23.0731 7.48765 23.2442 7.48765C23.4151 7.48765 23.5861 7.42241 23.7166 7.29198L24.9633 6.04538C25.2242 5.78446 25.2242 5.36145 24.9633 5.10043Z" />
<path d="M7.3558 22.708C7.09494 22.4471 6.67193 22.4471 6.41096 22.708L5.16425 23.9546C4.90334 24.2155 4.90334 24.6385 5.16425 24.8995C5.29474 25.0299 5.46574 25.0952 5.6367 25.0952C5.80765 25.0952 5.9786 25.0299 6.10914 24.8995L7.35585 23.6529C7.61671 23.3919 7.61671 22.969 7.3558 22.708Z" />
<path d="M7.35578 6.34709L6.10907 5.10043C5.84815 4.83957 5.42515 4.83957 5.16423 5.10043C4.90332 5.36145 4.90337 5.78441 5.16423 6.04538L6.41094 7.29198C6.54137 7.42241 6.71243 7.48765 6.88339 7.48765C7.05434 7.48765 7.2254 7.42241 7.35583 7.29198C7.61669 7.03095 7.61664 6.608 7.35578 6.34709Z" />
<path d="M24.9632 23.9546L23.7166 22.708C23.4555 22.4471 23.0326 22.4471 22.7716 22.708C22.5107 22.969 22.5107 23.3919 22.7716 23.6529L24.0183 24.8995C24.1488 25.0299 24.3198 25.0952 24.4908 25.0952C24.6617 25.0952 24.8327 25.0299 24.9632 24.8995C25.2241 24.6385 25.2241 24.2155 24.9632 23.9546Z" />
</svg>
