<svg width="30" height="30" viewBox="0 0 30 30" fill="none" xmlns="http://www.w3.org/2000/svg">
<path d="M6.1779 20.132C5.91673 19.8709 5.49309 19.8708 5.23192 20.1319C4.97064 20.3932 4.97064 20.8167 5.23182 21.0779L8.8902 24.7364C9.02083 24.867 9.19199 24.9324 9.36324 24.9324C9.53439 24.9324 9.70564 24.867 9.83618 24.7365C10.0975 24.4752 10.0975 24.0517 9.83628 23.7905L6.1779 20.132Z" fill="#CDD6EC"/>
<path d="M9.9243 18.2706C9.66322 18.0094 9.23959 18.0094 8.97831 18.2705C8.71704 18.5318 8.71704 18.9553 8.97822 19.2165L10.752 20.9904C10.8826 21.121 11.0538 21.1864 11.225 21.1864C11.3962 21.1864 11.5674 21.121 11.698 20.9904C11.9592 20.7292 11.9592 20.3056 11.6981 20.0445L9.9243 18.2706Z" fill="#CDD6EC"/>
<path d="M29.8771 2.15216C29.7274 1.50051 29.5572 1.07582 29.3718 0.890622C29.1264 0.645118 28.822 0.509895 28.5149 0.509895C28.3581 0.509895 28.2061 0.544012 28.0629 0.611193C27.9136 0.681146 27.7522 0.759795 27.5825 0.84456L26.9569 0.218808C26.6958 -0.0422731 26.2722 -0.0423687 26.0109 0.218712C25.7496 0.479888 25.7496 0.903523 26.0108 1.1647L26.3396 1.49353C26.0476 1.65083 25.7533 1.81205 25.468 1.97011L25.0975 1.59952C24.8362 1.33834 24.4127 1.33834 24.1514 1.59952C23.8902 1.86079 23.8902 2.28433 24.1514 2.5456L24.2566 2.65081C23.6845 2.9764 23.2833 3.21024 23.2383 3.23662C23.1886 3.26567 23.143 3.30084 23.1023 3.34155C22.7847 3.6594 22.6873 4.11648 22.8067 4.52769L14.6341 12.7003C14.5783 12.6735 14.5231 12.6472 14.469 12.6218C14.115 12.4548 13.8093 12.3106 13.5212 12.0225C13.2642 11.7655 13.926 10.6938 14.2816 10.1179C14.902 9.11323 15.5435 8.07435 14.8051 7.33593C14.6654 7.19622 14.4154 7.02965 14.0179 7.02965C12.9671 7.02965 11.5106 8.25841 11.2063 8.56269C10.0372 9.73181 9.56588 10.6442 9.10994 11.5265C8.70867 12.3032 8.32957 13.037 7.43155 13.935C6.76146 14.6051 5.8817 14.9386 4.95024 15.2918C3.87782 15.6984 2.76899 16.1188 1.81306 17.0747C-2.32256 21.2104 1.7025 25.2356 3.21766 26.751C4.71974 28.253 6.73671 29.9771 9.02069 29.977C10.3821 29.9769 11.6853 29.3641 12.894 28.1553C13.8497 27.1995 14.2702 26.0906 14.6768 25.0182C15.0299 24.0868 15.3635 23.207 16.0335 22.537C16.6819 21.8885 17.1895 21.6504 17.777 21.3746C18.3875 21.0881 19.0794 20.7633 19.8877 19.9551C21.8819 17.9608 21.744 16.9858 21.277 16.5189C21.0266 16.2684 20.6929 16.1415 20.2852 16.1415C19.8242 16.1415 19.3194 16.3037 18.7848 16.4757C18.2541 16.6462 17.7052 16.8228 17.2487 16.8228C16.9474 16.8228 16.7376 16.7474 16.5688 16.5785C16.4546 16.4643 16.3757 16.3684 16.3222 16.2804L25.44 7.16258C25.551 7.19497 25.667 7.21237 25.7854 7.21237C26.1047 7.21237 26.4037 7.08947 26.6272 6.86614L29.746 3.74722C30.0371 3.45584 30.074 3.00861 29.8771 2.15216ZM23.6432 5.58329L24.3851 6.32525L16.3376 14.3727C16.2536 14.0886 16.0817 13.7827 15.7628 13.4639L15.7627 13.4638L23.6432 5.58329ZM17.2486 18.1608C17.2487 18.1608 17.2486 18.1608 17.2486 18.1608C17.9149 18.1608 18.5947 17.9423 19.1943 17.7493C19.5395 17.6384 19.8946 17.5242 20.1485 17.4898C19.9684 17.8384 19.5225 18.428 18.9416 19.009C18.2988 19.6517 17.7935 19.8888 17.2084 20.1634C16.5958 20.451 15.9013 20.7769 15.0873 21.5909C14.2141 22.4642 13.8133 23.5214 13.4256 24.5438C13.0526 25.5275 12.7004 26.4566 11.9476 27.2093C10.9857 28.1714 10.0281 28.639 9.0203 28.6391C7.22762 28.6391 5.48301 27.1244 4.16355 25.805C3.15507 24.7965 1.94102 23.4556 1.5 22.0255C1.06442 20.6134 1.4762 19.3034 2.75886 18.0207C3.51162 17.268 4.44079 16.9157 5.42433 16.5428C6.44677 16.155 7.50418 15.7542 8.37735 14.881C9.42244 13.8358 9.86767 12.974 10.2984 12.1405C10.7261 11.3127 11.1301 10.5307 12.152 9.50867C12.5526 9.10807 13.2405 8.65108 13.6899 8.45957C13.5536 8.74999 13.3098 9.14476 13.1429 9.41492C12.479 10.4902 11.5694 11.9629 12.5749 12.9685C13.0277 13.4212 13.49 13.6393 13.898 13.8317C14.2439 13.9949 14.5428 14.1359 14.8166 14.4099C15.1278 14.721 15.098 14.8416 14.9994 15.2412C14.8684 15.7715 14.6706 16.5728 15.6224 17.5247C16.0447 17.9467 16.5917 18.1607 17.2486 18.1608ZM25.7765 5.82459L24.1858 4.23383C24.9419 3.79739 27.0918 2.56777 28.4252 1.92071C28.5225 2.20434 28.6378 2.69 28.6584 2.94267L25.7765 5.82459Z" fill="#CDD6EC"/>
</svg>
