<svg width="23" height="23" viewBox="0 0 23 23" fill="none" xmlns="http://www.w3.org/2000/svg">
<path d="M22.3746 13.4292C22.1517 13.216 21.8903 13.0575 21.6074 12.9603V12.1738C21.6074 6.58737 17.0868 2.06641 11.5 2.06641C5.91354 2.06641 1.39258 6.58702 1.39258 12.1738V12.9603C1.10971 13.0575 0.848251 13.216 0.625397 13.4292C0.222153 13.8147 0 14.326 0 14.8691V17.5645C0 18.6817 0.947746 19.5859 2.06641 19.5859H4.08789V20.9336H5.43555V11.5H4.08789V12.8477H2.74023V12.1738C2.74023 10.4377 3.24789 8.81785 4.12263 7.4551L6.41084 8.82803L6.77917 8.37179C7.93959 6.93394 9.66031 6.10938 11.5 6.10938C13.2337 6.10938 14.8893 6.85708 16.0427 8.16087L16.4544 8.6264L18.5848 7.02869C19.6375 8.47427 20.2598 10.2527 20.2598 12.1738V12.8477H18.9121V11.5H17.5645V20.9336H18.9121V19.5859H20.9336C22.0507 19.5859 23 18.6831 23 17.5645V14.8691C23 14.326 22.7778 13.8147 22.3746 13.4292ZM4.08789 18.2383H2.06641C1.68352 18.2383 1.34766 17.9235 1.34766 17.5645V14.8691C1.34766 14.5101 1.68352 14.1953 2.06641 14.1953H4.08789V18.2383ZM16.6193 6.8183C15.2445 5.50433 13.4113 4.76172 11.5 4.76172C9.44816 4.76172 7.51775 5.60032 6.1185 7.08099L4.94088 6.37452C6.54701 4.5601 8.89207 3.41406 11.5 3.41406C13.9242 3.41406 16.1215 4.4041 17.709 6.00093L16.6193 6.8183ZM21.6523 17.5645C21.6523 17.9235 21.3165 18.2383 20.9336 18.2383H18.9121V14.1953H20.9336C21.3165 14.1953 21.6523 14.5101 21.6523 14.8691V17.5645Z" fill="#B3BACE"/>
<path d="M6.7832 14.1953H8.13086V18.2383H6.7832V14.1953Z" fill="#B3BACE"/>
<path d="M9.47852 12.8477H10.8262V19.5859H9.47852V12.8477Z" fill="#B3BACE"/>
<path d="M12.1738 12.8477H13.5215V19.5859H12.1738V12.8477Z" fill="#B3BACE"/>
<path d="M14.8691 14.1953H16.2168V18.2383H14.8691V14.1953Z" fill="#B3BACE"/>
</svg>
