<svg width="25" height="22" viewBox="0 0 25 22" xmlns="http://www.w3.org/2000/svg">
<path d="M12.5277 21.5879C12.1916 21.5879 11.8675 21.4661 11.615 21.2449C10.6611 20.4109 9.74152 19.6271 8.93018 18.9357L8.92603 18.9321C6.54731 16.905 4.49319 15.1544 3.06397 13.4299C1.46632 11.5021 0.722168 9.67423 0.722168 7.67739C0.722168 5.7373 1.38742 3.94744 2.59525 2.63729C3.81749 1.31165 5.49458 0.581543 7.31812 0.581543C8.68105 0.581543 9.92922 1.01244 11.0279 1.86215C11.5824 2.29106 12.0849 2.81598 12.5277 3.42828C12.9707 2.81598 13.4731 2.29106 14.0277 1.86215C15.1264 1.01244 16.3746 0.581543 17.7375 0.581543C19.5609 0.581543 21.2381 1.31165 22.4604 2.63729C23.6682 3.94744 24.3333 5.7373 24.3333 7.67739C24.3333 9.67423 23.5893 11.5021 21.9917 13.4298C20.5624 15.1544 18.5085 16.9048 16.1301 18.9317C15.3173 19.6242 14.3963 20.4092 13.4403 21.2453C13.1879 21.4661 12.8637 21.5879 12.5277 21.5879ZM7.31812 1.96465C5.88548 1.96465 4.56939 2.53641 3.61195 3.57473C2.64028 4.62872 2.10509 6.08568 2.10509 7.67739C2.10509 9.35683 2.72927 10.8588 4.12877 12.5474C5.48143 14.1797 7.49339 15.8942 9.82294 17.8796L9.82727 17.8832C10.6417 18.5772 11.5649 19.3641 12.5257 20.2042C13.4924 19.3625 14.417 18.5744 15.233 17.8792C17.5624 15.8939 19.5742 14.1797 20.9269 12.5474C22.3262 10.8588 22.9504 9.35683 22.9504 7.67739C22.9504 6.08568 22.4152 4.62872 21.4435 3.57473C20.4862 2.53641 19.17 1.96465 17.7375 1.96465C16.688 1.96465 15.7245 2.29827 14.8737 2.95613C14.1155 3.54267 13.5873 4.28412 13.2776 4.80292C13.1184 5.0697 12.8381 5.22894 12.5277 5.22894C12.2173 5.22894 11.937 5.0697 11.7778 4.80292C11.4683 4.28412 10.9402 3.54267 10.1818 2.95613C9.33099 2.29827 8.36742 1.96465 7.31812 1.96465Z" />
</svg>
