<svg width="31" height="26" viewBox="0 0 31 26" fill='none' xmlns="http://www.w3.org/2000/svg">
<path d="M3.37533 0.891785C1.56865 0.891785 0.098999 2.36143 0.098999 4.16811C0.098999 5.9748 1.56865 7.44444 3.37533 7.44444C5.18201 7.44444 6.65166 5.9748 6.65166 4.16811C6.65166 2.36143 5.18201 0.891785 3.37533 0.891785ZM3.37533 5.73505C2.51138 5.73505 1.80839 5.03207 1.80839 4.16811C1.80839 3.30416 2.51138 2.60117 3.37533 2.60117C4.23929 2.60117 4.94227 3.30416 4.94227 4.16811C4.94227 5.03207 4.23943 5.73505 3.37533 5.73505Z" />
<path d="M29.1586 3.31342H9.21575C8.74381 3.31342 8.36105 3.69618 8.36105 4.16811C8.36105 4.64005 8.74381 5.02281 9.21575 5.02281H29.1586C29.6306 5.02281 30.0133 4.64005 30.0133 4.16811C30.0133 3.69618 29.6307 3.31342 29.1586 3.31342Z" />
<path d="M3.37533 9.72363C2.9034 9.72363 2.52064 10.1064 2.52064 10.5783C2.52064 11.0503 2.9034 11.433 3.37533 11.433C4.23929 11.433 4.94227 12.136 4.94227 13C4.94227 13.8639 4.23929 14.5669 3.37533 14.5669C2.51138 14.5669 1.80839 13.8639 1.80839 13C1.80839 12.528 1.42563 12.1453 0.953694 12.1453C0.48176 12.1453 0.098999 12.528 0.098999 13C0.098999 14.8067 1.56865 16.2763 3.37533 16.2763C5.18201 16.2763 6.65166 14.8067 6.65166 13C6.65166 11.1933 5.18201 9.72363 3.37533 9.72363Z" />
<path d="M29.1586 12.1453H9.21575C8.74381 12.1453 8.36105 12.528 8.36105 13C8.36105 13.4719 8.74381 13.8547 9.21575 13.8547H29.1586C29.6306 13.8547 30.0133 13.4719 30.0133 13C30.0133 12.528 29.6307 12.1453 29.1586 12.1453Z"/>
<path d="M3.37533 18.5555C1.56865 18.5555 0.098999 20.0251 0.098999 21.8318C0.098999 23.6385 1.56865 25.1081 3.37533 25.1081C5.18201 25.1081 6.65166 23.6385 6.65166 21.8318C6.65166 20.0251 5.18201 18.5555 3.37533 18.5555ZM3.37533 23.3988C2.51138 23.3988 1.80839 22.6958 1.80839 21.8318C1.80839 20.9679 2.51138 20.2649 3.37533 20.2649C4.23929 20.2649 4.94227 20.9679 4.94227 21.8318C4.94227 22.6958 4.23943 23.3988 3.37533 23.3988Z" />
<path d="M29.1586 20.9771H9.21575C8.74381 20.9771 8.36105 21.3599 8.36105 21.8318C8.36105 22.3037 8.74381 22.6865 9.21575 22.6865H29.1586C29.6306 22.6865 30.0133 22.3037 30.0133 21.8318C30.0133 21.3599 29.6307 20.9771 29.1586 20.9771Z"/>
</svg>
