<svg width="30" height="30" viewBox="0 0 30 30"  xmlns="http://www.w3.org/2000/svg">
<g clip-path="url(#clip0)">
<path d="M18.5156 15.2344C18.1922 15.2344 17.9297 15.4969 17.9297 15.8203C17.9297 16.1437 18.1922 16.4062 18.5156 16.4062C18.839 16.4062 19.1016 16.1437 19.1016 15.8203C19.1016 15.4969 18.839 15.2344 18.5156 15.2344Z" fill="#CDD6EC"/>
<path d="M5.98703 21.6671L0.127647 29.0499C-0.0121997 29.2259 -0.03875 29.4665 0.0589826 29.6688C0.156715 29.8714 0.361793 30 0.586555 30H29.4147C29.6395 30 29.8445 29.8714 29.9423 29.6688C30.0402 29.4665 30.0135 29.2259 29.8736 29.0499L24.0142 21.6671C23.9032 21.527 23.7341 21.4453 23.5553 21.4453H18.4226L22.8046 14.5724C23.8325 13.0314 24.3756 11.2342 24.3756 9.375C24.3756 4.2057 20.1702 0 15.0006 0C9.8311 0 5.62562 4.2057 5.62562 9.375C5.62562 11.2342 6.16876 13.0312 7.19667 14.5724L11.5786 21.4453H6.44593C6.26718 21.4453 6.09826 21.527 5.98703 21.6671ZM3.79937 26.3086H7.34224L5.34272 28.8281H1.79963L3.79937 26.3086ZM12.3259 22.6172L13.9322 25.1367H9.76838L11.7681 22.6172H12.3259ZM17.6756 22.6172H18.2334L20.2329 25.1367H16.0693L17.6756 22.6172ZM21.163 26.3086L23.1626 28.8281H6.8387L8.83844 26.3086H21.163ZM24.6588 28.8281L22.659 26.3086H26.2021L28.2016 28.8281H24.6588ZM25.2719 25.1367H21.7291L19.7293 22.6172H23.2724L25.2719 25.1367ZM8.17491 13.927C7.2738 12.578 6.7975 11.004 6.7975 9.375C6.7975 4.85184 10.4775 1.17188 15.0006 1.17188C19.5238 1.17188 23.2038 4.85184 23.2038 9.375C23.2038 11.004 22.7275 12.578 21.8266 13.927C21.8241 13.9304 21.822 13.9339 21.8197 13.9373C21.435 14.5409 15.297 24.1681 15.0006 24.6327C14.2552 23.4634 8.94075 15.1279 8.18155 13.9373C8.17949 13.9339 8.1772 13.9304 8.17491 13.927ZM10.2719 22.6172L8.27241 25.1367H4.72932L6.72906 22.6172H10.2719Z" fill="#CDD6EC"/>
<path d="M15 15.2344C18.2167 15.2344 20.8594 12.6295 20.8594 9.375C20.8594 6.1441 18.2309 3.51562 15 3.51562C11.7691 3.51562 9.14062 6.1441 9.14062 9.375C9.14062 12.6304 11.7842 15.2344 15 15.2344ZM15 4.6875C17.5848 4.6875 19.6875 6.79024 19.6875 9.375C19.6875 11.9838 17.5678 14.0625 15 14.0625C12.4315 14.0625 10.3125 11.9838 10.3125 9.375C10.3125 6.79024 12.4152 4.6875 15 4.6875Z" fill="#CDD6EC"/>
<path d="M17.4681 17.2339C17.1911 17.0668 16.8309 17.1561 16.6638 17.4332L14.4981 21.0262C14.331 21.3034 14.4203 21.6634 14.6975 21.8305C14.9758 21.9983 15.3353 21.9072 15.5017 21.6312L17.6674 18.0382C17.8345 17.761 17.7452 17.401 17.4681 17.2339Z" fill="#CDD6EC"/>
</g>
<defs>
<clipPath id="clip0">
<rect width="30" height="30" fill="white"/>
</clipPath>
</defs>
</svg>
