<svg width="21" height="17" viewBox="0 0 21 17"  xmlns="http://www.w3.org/2000/svg">
<path d="M0.899999 14.35H20.1C20.595 14.35 21 14.755 21 15.25C21 15.745 20.595 16.15 20.1 16.15H0.899999C0.405 16.15 0 15.745 0 15.25C0 14.755 0.405 14.35 0.899999 14.35Z" fill="white"/>
<path d="M0.728571 7.60003H16.2714C16.6721 7.60003 17 8.00503 17 8.50003C17 8.99502 16.6721 9.40002 16.2714 9.40002H0.728571C0.327857 9.40002 0 8.99502 0 8.50003C0 8.00503 0.327857 7.60003 0.728571 7.60003Z" fill="white"/>
<path d="M0.899999 0.850023H20.1C20.595 0.850023 21 1.25502 21 1.75002C21 2.24502 20.595 2.65002 20.1 2.65002H0.899999C0.405 2.65002 0 2.24502 0 1.75002C0 1.25502 0.405 0.850023 0.899999 0.850023Z" fill="white"/>
</svg>
