<svg width="28" height="8" viewBox="0 0 28 8" fill="none" xmlns="http://www.w3.org/2000/svg">
<path d="M17.4405 3.82622C17.4405 1.92962 15.8966 0.385742 14 0.385742C12.1034 0.385742 10.5596 1.92962 10.5596 3.82622C10.5596 5.72282 12.1034 7.2667 14 7.2667C15.8966 7.2667 17.4405 5.72282 17.4405 3.82622ZM14 5.85003C12.8841 5.85003 11.9762 4.94221 11.9762 3.82622C11.9762 2.71023 12.8841 1.80241 14 1.80241C15.116 1.80241 16.0238 2.71023 16.0238 3.82622C16.0238 4.94221 15.116 5.85003 14 5.85003Z" fill="white"/>
<path d="M4.27385 0.385742C2.37725 0.385742 0.833374 1.92962 0.833374 3.82622C0.833374 5.72282 2.37725 7.2667 4.27385 7.2667C6.17045 7.2667 7.71432 5.72282 7.71432 3.82622C7.71432 1.92962 6.17045 0.385742 4.27385 0.385742ZM4.27385 5.85003C3.15786 5.85003 2.25004 4.94221 2.25004 3.82622C2.25004 2.71023 3.15786 1.80241 4.27385 1.80241C5.38983 1.80241 6.29766 2.71023 6.29766 3.82622C6.29766 4.94221 5.38983 5.85003 4.27385 5.85003Z" fill="white"/>
<path d="M23.7262 0.385742C21.8296 0.385742 20.2858 1.92962 20.2858 3.82622C20.2858 5.72282 21.8296 7.2667 23.7262 7.2667C25.6228 7.2667 27.1667 5.72282 27.1667 3.82622C27.1667 1.92962 25.6228 0.385742 23.7262 0.385742ZM23.7262 5.85003C22.6103 5.85003 21.7024 4.94221 21.7024 3.82622C21.7024 2.71023 22.6103 1.80241 23.7262 1.80241C24.8422 1.80241 25.75 2.71023 25.75 3.82622C25.75 4.94221 24.8422 5.85003 23.7262 5.85003Z" fill="white"/>
</svg>
