<svg width="20" height="20" viewBox="0 0 20 20"  xmlns="http://www.w3.org/2000/svg">
<path d="M15.6764 0H18.7756C19.1121 0 19.4192 0.137534 19.6409 0.359191C19.8625 0.583519 20 0.889298 20 1.22445V4.32365C20 4.66014 19.8625 4.96725 19.6409 5.18891C19.4192 5.41057 19.1121 5.5481 18.7756 5.5481H8.46053C8.1227 5.5481 7.81692 5.41057 7.59393 5.18891C7.37228 4.96725 7.23474 4.66014 7.23474 4.32365V1.22445C7.23474 0.887963 7.37228 0.580848 7.59393 0.359191C7.81559 0.137534 8.1227 0 8.46053 0H15.6764V0ZM16.2599 1.1844H8.46053C8.44985 1.1844 8.43917 1.18974 8.43249 1.19641C8.42448 1.20443 8.42047 1.21377 8.42047 1.22445V4.32365C8.42047 4.33433 8.42581 4.34501 8.43249 4.35169C8.4405 4.3597 8.44985 4.3637 8.46053 4.3637H18.7756C18.7863 4.3637 18.797 4.35836 18.8036 4.35169C18.8116 4.34367 18.8156 4.33433 18.8156 4.32365V1.22445C18.8156 1.21244 18.8116 1.20175 18.8063 1.19641C18.797 1.1884 18.7863 1.1844 18.7756 1.1844H16.2613H16.2599Z" fill="white"/>
<path d="M15.6764 7.20653H18.7756C19.1121 7.20653 19.4192 7.34406 19.6409 7.56572C19.8625 7.79005 20 8.09583 20 8.43098V11.5302C20 11.8667 19.8625 12.1738 19.6409 12.3954C19.4192 12.6171 19.1121 12.7546 18.7756 12.7546H8.46053C8.12404 12.7546 7.81826 12.6171 7.59527 12.3941C7.37228 12.1738 7.23474 11.8667 7.23474 11.5288V8.42965C7.23474 8.09449 7.37228 7.78871 7.59393 7.56572L7.5966 7.56305C7.81959 7.34139 8.12537 7.20386 8.46053 7.20386H15.6764V7.20653ZM16.5924 8.39092H8.4592C8.44718 8.39092 8.4365 8.39493 8.43115 8.40027L8.42848 8.40294C8.42181 8.40962 8.41914 8.41896 8.41914 8.43098V11.5302C8.41914 11.5409 8.42448 11.5515 8.43115 11.5582C8.43783 11.5662 8.44718 11.5702 8.4592 11.5702H18.7743C18.7849 11.5702 18.7956 11.5649 18.8023 11.5582C18.8103 11.5502 18.8143 11.5409 18.8143 11.5302V8.43098C18.8143 8.41896 18.8103 8.40828 18.805 8.40294C18.7956 8.39493 18.7849 8.39092 18.7743 8.39092H16.5924Z" fill="white"/>
<path d="M1.22591 -1.4981e-05H4.3251C4.6616 -1.4981e-05 4.96871 0.137519 5.19037 0.359176C5.41202 0.583504 5.54956 0.889284 5.54956 1.22444V4.32363C5.54956 4.66012 5.41202 4.96724 5.19037 5.18889C4.96871 5.41055 4.6616 5.54809 4.3251 5.54809H1.22591C0.889421 5.54809 0.583641 5.41055 0.360649 5.18756C0.137656 4.96724 0.00012207 4.66012 0.00012207 4.3223V1.2231C0.00012207 0.887948 0.137656 0.582168 0.359313 0.359176L0.361984 0.356506C0.584976 0.134849 0.890756 -0.00268555 1.22591 -0.00268555V-1.4981e-05ZM4.3251 1.18438H1.22591C1.21389 1.18438 1.20321 1.18839 1.19787 1.19373L1.1952 1.1964C1.18852 1.20308 1.18585 1.21242 1.18585 1.22444V4.32363C1.18585 4.33431 1.19119 4.345 1.19787 4.35167C1.20455 4.35968 1.21389 4.36369 1.22591 4.36369H4.3251C4.33579 4.36369 4.34647 4.35835 4.35314 4.35167C4.36116 4.34366 4.36516 4.33431 4.36516 4.32363V1.22444C4.36516 1.21242 4.36116 1.20174 4.35582 1.1964C4.34647 1.18839 4.33579 1.18438 4.3251 1.18438Z" fill="white"/>
<path d="M1.22591 7.20653H4.3251C4.66159 7.20653 4.96871 7.34406 5.19037 7.56572C5.41202 7.79005 5.54956 8.09583 5.54956 8.43098V11.5302C5.54956 11.8667 5.41202 12.1738 5.19037 12.3954C4.96871 12.6171 4.66159 12.7546 4.3251 12.7546H1.22591C0.88942 12.7546 0.583641 12.6171 0.360648 12.3941C0.137656 12.1738 0.00012207 11.8667 0.00012207 11.5288V8.42965C0.00012207 8.09449 0.137656 7.78871 0.359313 7.56572L0.361984 7.56305C0.584976 7.34139 0.890756 7.20386 1.22591 7.20386V7.20653ZM4.3251 8.39092H1.22591C1.21389 8.39092 1.20321 8.39493 1.19787 8.40027L1.1952 8.40294C1.18852 8.40962 1.18585 8.41896 1.18585 8.43098V11.5302C1.18585 11.5409 1.19119 11.5515 1.19787 11.5582C1.20455 11.5662 1.21389 11.5702 1.22591 11.5702H4.3251C4.33579 11.5702 4.34647 11.5649 4.35314 11.5582C4.36116 11.5502 4.36516 11.5409 4.36516 11.5302V8.43098C4.36516 8.41896 4.36116 8.40828 4.35581 8.40294C4.34647 8.39493 4.33579 8.39092 4.3251 8.39092Z" fill="white"/>
<path d="M15.6764 14.2915H18.7756C19.1121 14.2915 19.4192 14.429 19.6409 14.6507C19.8625 14.875 20 15.1808 20 15.5159V18.6151C20 18.9516 19.8625 19.2587 19.6409 19.4804C19.4192 19.7021 19.1121 19.8396 18.7756 19.8396H8.46053C8.12404 19.8396 7.81826 19.7021 7.59527 19.4791C7.37228 19.2587 7.23474 18.9516 7.23474 18.6138V15.5146C7.23474 15.1795 7.37228 14.8737 7.59393 14.6507L7.5966 14.648C7.81959 14.4264 8.12537 14.2888 8.46053 14.2888H15.6764V14.2915ZM16.5924 15.4759H8.4592C8.44718 15.4759 8.4365 15.4799 8.43115 15.4852L8.42848 15.4879C8.42181 15.4946 8.41914 15.5039 8.41914 15.5159V18.6151C8.41914 18.6258 8.42448 18.6365 8.43115 18.6432C8.43783 18.6512 8.44718 18.6552 8.4592 18.6552H18.7743C18.7849 18.6552 18.7956 18.6499 18.8023 18.6432C18.8103 18.6352 18.8143 18.6258 18.8143 18.6151V15.5159C18.8143 15.5039 18.8103 15.4932 18.805 15.4879C18.7956 15.4799 18.7849 15.4759 18.7743 15.4759H16.5924Z" fill="white"/>
<path d="M1.22591 14.2915H4.3251C4.66159 14.2915 4.96871 14.429 5.19037 14.6507C5.41202 14.875 5.54956 15.1808 5.54956 15.5159V18.6151C5.54956 18.9516 5.41202 19.2587 5.19037 19.4804C4.96871 19.7021 4.66159 19.8396 4.3251 19.8396H1.22591C0.88942 19.8396 0.583641 19.7021 0.360648 19.4791C0.137656 19.2587 0.00012207 18.9516 0.00012207 18.6138V15.5146C0.00012207 15.1795 0.137656 14.8737 0.359313 14.6507L0.361984 14.648C0.584976 14.4264 0.890756 14.2888 1.22591 14.2888V14.2915ZM4.3251 15.4759H1.22591C1.21389 15.4759 1.20321 15.4799 1.19787 15.4852L1.1952 15.4879C1.18852 15.4946 1.18585 15.5039 1.18585 15.5159V18.6151C1.18585 18.6258 1.19119 18.6365 1.19787 18.6432C1.20455 18.6512 1.21389 18.6552 1.22591 18.6552H4.3251C4.33579 18.6552 4.34647 18.6499 4.35314 18.6432C4.36116 18.6352 4.36516 18.6258 4.36516 18.6151V15.5159C4.36516 15.5039 4.36116 15.4932 4.35581 15.4879C4.34647 15.4799 4.33579 15.4759 4.3251 15.4759Z" fill="white"/>
</svg>
