<svg width="20" height="20" viewBox="0 0 20 20" fill="none" xmlns="http://www.w3.org/2000/svg">
<path d="M15.6761 0H18.7746C19.11 0 19.4157 0.137765 19.6383 0.359619L19.6404 0.361748C19.8624 0.58421 20 0.890001 20 1.22544V4.32395C20 4.66091 19.8622 4.96776 19.6404 5.18962C19.4166 5.41132 19.1106 5.54924 18.7747 5.54924H15.6762C15.3393 5.54924 15.0324 5.41147 14.8105 5.18962C14.5885 4.96761 14.4509 4.66091 14.4509 4.32395V1.22544C14.4509 0.889392 14.5888 0.58345 14.8116 0.360684C15.0326 0.137613 15.3393 0 15.6764 0L15.6761 0ZM18.7746 1.18484H15.6761C15.6653 1.18484 15.6549 1.18956 15.6476 1.19701C15.6394 1.20309 15.6355 1.21328 15.6355 1.22544V4.32395C15.6355 4.33474 15.6402 4.34508 15.6476 4.35238C15.6549 4.35968 15.6653 4.36455 15.6761 4.36455H18.7746C18.7867 4.36455 18.7969 4.36059 18.803 4.35451C18.8103 4.34508 18.8152 4.33474 18.8152 4.32395V1.22544C18.8152 1.21328 18.8112 1.20309 18.8051 1.19701L18.803 1.19488C18.7969 1.1888 18.7867 1.18484 18.7746 1.18484Z" fill="white"/>
<path d="M15.6761 7.20667H18.7746C19.11 7.20667 19.4157 7.34443 19.6383 7.56628L19.6404 7.56841C19.8624 7.79088 20 8.09667 20 8.43211V11.5306C20 11.8676 19.8622 12.1744 19.6404 12.3963C19.4166 12.618 19.1106 12.7559 18.7747 12.7559H15.6762C15.3393 12.7559 15.0324 12.6181 14.8105 12.3963C14.5885 12.1743 14.4509 11.8676 14.4509 11.5306V8.43211C14.4509 8.09606 14.5888 7.79011 14.8116 7.56735C15.0326 7.34428 15.3393 7.20667 15.6764 7.20667H15.6761ZM18.7746 8.39151H15.6761C15.6653 8.39151 15.6549 8.39622 15.6476 8.40367C15.6394 8.40975 15.6355 8.41994 15.6355 8.43211V11.5306C15.6355 11.5414 15.6402 11.5517 15.6476 11.559C15.6549 11.5663 15.6653 11.5712 15.6761 11.5712H18.7746C18.7867 11.5712 18.7969 11.5673 18.803 11.5612C18.8103 11.5517 18.8152 11.5414 18.8152 11.5306V8.43211C18.8152 8.41994 18.8112 8.40975 18.8051 8.40367L18.803 8.40154C18.7969 8.39546 18.7867 8.39151 18.7746 8.39151Z" fill="white"/>
<path d="M8.45964 0H11.5581C11.8936 0 12.1992 0.137765 12.4218 0.359619L12.424 0.361748C12.646 0.58421 12.7836 0.890001 12.7836 1.22544V4.32395C12.7836 4.66091 12.6458 4.96776 12.424 5.18962C12.2001 5.41132 11.8942 5.54924 11.5583 5.54924H8.45979C8.12282 5.54924 7.81597 5.41147 7.59412 5.18962C7.37211 4.96761 7.2345 4.66091 7.2345 4.32395V1.22544C7.2345 0.889392 7.37241 0.58345 7.59518 0.360684C7.81612 0.137613 8.12282 0 8.45994 0L8.45964 0ZM11.5581 1.18484H8.45964C8.44884 1.18484 8.4385 1.18956 8.4312 1.19701C8.42299 1.20309 8.41904 1.21328 8.41904 1.22544V4.32395C8.41904 4.33474 8.42375 4.34508 8.4312 4.35238C8.4385 4.35968 8.44884 4.36455 8.45964 4.36455H11.5581C11.5703 4.36455 11.5805 4.36059 11.5866 4.35451C11.5939 4.34508 11.5987 4.33474 11.5987 4.32395V1.22544C11.5987 1.21328 11.5948 1.20309 11.5887 1.19701L11.5866 1.19488C11.5805 1.1888 11.5703 1.18484 11.5581 1.18484Z" fill="white"/>
<path d="M8.45964 7.20667H11.5581C11.8936 7.20667 12.1992 7.34443 12.4218 7.56628L12.424 7.56841C12.646 7.79088 12.7836 8.09667 12.7836 8.43211V11.5306C12.7836 11.8676 12.6458 12.1744 12.424 12.3963C12.2001 12.618 11.8942 12.7559 11.5583 12.7559H8.45979C8.12282 12.7559 7.81597 12.6181 7.59412 12.3963C7.37211 12.1743 7.2345 11.8676 7.2345 11.5306V8.43211C7.2345 8.09606 7.37241 7.79011 7.59518 7.56735C7.81612 7.34428 8.12282 7.20667 8.45994 7.20667H8.45964ZM11.5581 8.39151H8.45964C8.44884 8.39151 8.4385 8.39622 8.4312 8.40367C8.42299 8.40975 8.41904 8.41994 8.41904 8.43211V11.5306C8.41904 11.5414 8.42375 11.5517 8.4312 11.559C8.4385 11.5663 8.44884 11.5712 8.45964 11.5712H11.5581C11.5703 11.5712 11.5805 11.5673 11.5866 11.5612C11.5939 11.5517 11.5987 11.5414 11.5987 11.5306V8.43211C11.5987 8.41994 11.5948 8.40975 11.5887 8.40367L11.5866 8.40154C11.5805 8.39546 11.5703 8.39151 11.5581 8.39151Z" fill="white"/>
<path d="M1.22526 0H4.32376C4.65921 0 4.96484 0.137765 5.18746 0.359619L5.18959 0.361748C5.41159 0.58421 5.54921 0.890001 5.54921 1.22544V4.32395C5.54921 4.66091 5.41144 4.96776 5.18959 5.18962C4.96576 5.41132 4.65981 5.54924 4.32392 5.54924H1.22541C0.88845 5.54924 0.581595 5.41147 0.359741 5.18962C0.137735 4.96761 0.00012207 4.66091 0.00012207 4.32395V1.22544C0.00012207 0.889392 0.138039 0.58345 0.360806 0.360684C0.581747 0.137613 0.88845 0 1.22556 0L1.22526 0ZM4.32376 1.18484H1.22526C1.21446 1.18484 1.20412 1.18956 1.19683 1.19701C1.18861 1.20309 1.18466 1.21328 1.18466 1.22544V4.32395C1.18466 4.33474 1.18937 4.34508 1.19683 4.35238C1.20412 4.35968 1.21446 4.36455 1.22526 4.36455H4.32376C4.33593 4.36455 4.34612 4.36059 4.3522 4.35451C4.3595 4.34508 4.36436 4.33474 4.36436 4.32395V1.22544C4.36436 1.21328 4.36041 1.20309 4.35433 1.19701L4.3522 1.19488C4.34612 1.1888 4.33593 1.18484 4.32376 1.18484Z" fill="white"/>
<path d="M1.2255 7.20667H4.32401C4.65945 7.20667 4.96509 7.34443 5.1877 7.56628L5.18983 7.56841C5.41184 7.79088 5.54945 8.09667 5.54945 8.43211V11.5306C5.54945 11.8676 5.41169 12.1744 5.18983 12.3963C4.966 12.618 4.66006 12.7559 4.32416 12.7559H1.22566C0.888694 12.7559 0.581839 12.6181 0.359985 12.3963C0.137979 12.1743 0.000366211 11.8676 0.000366211 11.5306V8.43211C0.000366211 8.09606 0.138284 7.79011 0.36105 7.56735C0.581991 7.34428 0.888694 7.20667 1.22581 7.20667H1.2255ZM4.32401 8.39151H1.2255C1.21471 8.39151 1.20437 8.39622 1.19707 8.40367C1.18886 8.40975 1.1849 8.41994 1.1849 8.43211V11.5306C1.1849 11.5414 1.18962 11.5517 1.19707 11.559C1.20437 11.5663 1.21471 11.5712 1.2255 11.5712H4.32401C4.33617 11.5712 4.34636 11.5673 4.35244 11.5612C4.35974 11.5517 4.36461 11.5414 4.36461 11.5306V8.43211C4.36461 8.41994 4.36065 8.40975 4.35457 8.40367L4.35244 8.40154C4.34636 8.39546 4.33617 8.39151 4.32401 8.39151Z" fill="white"/>
<path d="M15.6761 14.2915H18.7746C19.11 14.2915 19.4157 14.4293 19.6383 14.6511L19.6404 14.6533C19.8624 14.8757 20 15.1815 20 15.5169V18.6154C20 18.9524 19.8622 19.2593 19.6404 19.4811C19.4166 19.7028 19.1106 19.8407 18.7747 19.8407H15.6762C15.3393 19.8407 15.0324 19.703 14.8105 19.4811C14.5885 19.2591 14.4509 18.9524 14.4509 18.6154V15.5169C14.4509 15.1809 14.5888 14.875 14.8116 14.6522C15.0326 14.4291 15.3393 14.2915 15.6764 14.2915H15.6761ZM18.7746 15.4763H15.6761C15.6653 15.4763 15.6549 15.4811 15.6476 15.4885C15.6394 15.4946 15.6355 15.5048 15.6355 15.5169V18.6154C15.6355 18.6262 15.6402 18.6366 15.6476 18.6439C15.6549 18.6512 15.6653 18.656 15.6761 18.656H18.7746C18.7867 18.656 18.7969 18.6521 18.803 18.646C18.8103 18.6366 18.8152 18.6262 18.8152 18.6154V15.5169C18.8152 15.5048 18.8112 15.4946 18.8051 15.4885L18.803 15.4864C18.7969 15.4803 18.7867 15.4763 18.7746 15.4763Z" fill="white"/>
<path d="M8.45964 14.2915H11.5581C11.8936 14.2915 12.1992 14.4293 12.4218 14.6511L12.424 14.6533C12.646 14.8757 12.7836 15.1815 12.7836 15.5169V18.6154C12.7836 18.9524 12.6458 19.2593 12.424 19.4811C12.2001 19.7028 11.8942 19.8407 11.5583 19.8407H8.45979C8.12282 19.8407 7.81597 19.703 7.59412 19.4811C7.37211 19.2591 7.2345 18.9524 7.2345 18.6154V15.5169C7.2345 15.1809 7.37241 14.875 7.59518 14.6522C7.81612 14.4291 8.12282 14.2915 8.45994 14.2915H8.45964ZM11.5581 15.4763H8.45964C8.44884 15.4763 8.4385 15.4811 8.4312 15.4885C8.42299 15.4946 8.41904 15.5048 8.41904 15.5169V18.6154C8.41904 18.6262 8.42375 18.6366 8.4312 18.6439C8.4385 18.6512 8.44884 18.656 8.45964 18.656H11.5581C11.5703 18.656 11.5805 18.6521 11.5866 18.646C11.5939 18.6366 11.5987 18.6262 11.5987 18.6154V15.5169C11.5987 15.5048 11.5948 15.4946 11.5887 15.4885L11.5866 15.4864C11.5805 15.4803 11.5703 15.4763 11.5581 15.4763Z" fill="white"/>
<path d="M1.2255 14.2915H4.32401C4.65945 14.2915 4.96509 14.4293 5.1877 14.6511L5.18983 14.6533C5.41184 14.8757 5.54945 15.1815 5.54945 15.5169V18.6154C5.54945 18.9524 5.41169 19.2593 5.18983 19.4811C4.966 19.7028 4.66006 19.8407 4.32416 19.8407H1.22566C0.888694 19.8407 0.581839 19.703 0.359985 19.4811C0.137979 19.2591 0.000366211 18.9524 0.000366211 18.6154V15.5169C0.000366211 15.1809 0.138284 14.875 0.36105 14.6522C0.581991 14.4291 0.888694 14.2915 1.22581 14.2915H1.2255ZM4.32401 15.4763H1.2255C1.21471 15.4763 1.20437 15.4811 1.19707 15.4885C1.18886 15.4946 1.1849 15.5048 1.1849 15.5169V18.6154C1.1849 18.6262 1.18962 18.6366 1.19707 18.6439C1.20437 18.6512 1.21471 18.656 1.2255 18.656H4.32401C4.33617 18.656 4.34636 18.6521 4.35244 18.646C4.35974 18.6366 4.36461 18.6262 4.36461 18.6154V15.5169C4.36461 15.5048 4.36065 15.4946 4.35457 15.4885L4.35244 15.4864C4.34636 15.4803 4.33617 15.4763 4.32401 15.4763Z" fill="white"/>
</svg>
