<svg width="16" height="24" viewBox="0 0 16 24" fill="none" xmlns="http://www.w3.org/2000/svg">
<path d="M15.2269 22.132V1.86313C15.2269 0.838407 14.3934 0 13.3638 0H2.63608C1.61136 0 0.772949 0.833504 0.772949 1.86313V22.1369C0.772949 23.1616 1.60645 24 2.63608 24H13.3638C14.3885 23.9951 15.2269 23.1616 15.2269 22.132ZM1.97417 4.31951H14.0208V17.9596H1.97417V4.31951ZM2.63608 1.20123H13.3638C13.7266 1.20123 14.0257 1.4954 14.0257 1.86313V3.11828H1.97417V1.86313C1.97417 1.4954 2.27326 1.20123 2.63608 1.20123ZM1.97417 22.132V19.1559H14.0208V22.132C14.0208 22.4948 13.7266 22.7939 13.3589 22.7939H2.63608C2.27326 22.7939 1.97417 22.4997 1.97417 22.132Z" fill="#B3BACE"/>
<path d="M9.21587 20.4258H6.77909C6.44569 20.4258 6.17603 20.6954 6.17603 21.0288C6.17603 21.3622 6.44569 21.6319 6.77909 21.6319H9.21587C9.54927 21.6319 9.81894 21.3622 9.81894 21.0288C9.81894 20.6954 9.54927 20.4258 9.21587 20.4258Z" fill="#B3BACE"/>
</svg>
