<svg width="30" height="24" viewBox="0 0 30 24"   xmlns="http://www.w3.org/2000/svg">
<path d="M28.2992 6.04477V2.86706C28.2992 1.8312 27.4566 0.988525 26.4209 0.988525H3.57927C2.5435 0.988525 1.70083 1.8312 1.70083 2.86706V6.04477C0.748089 6.13467 0 6.93846 0 7.91432V21.1331C0 22.1689 0.842675 23.0115 1.87854 23.0115H28.1216C29.1573 23.0115 30 22.1689 30 21.1331V7.91432C30 6.93846 29.2519 6.13467 28.2992 6.04477ZM3.57927 2.3261H26.4209C26.719 2.3261 26.9616 2.56878 26.9616 2.86706V6.03579H18.4002V5.07187C18.4002 4.70251 18.1008 4.40308 17.7314 4.40308C17.3621 4.40308 17.0626 4.70251 17.0626 5.07187V6.03579H15.6688V5.07187C15.6688 4.70251 15.3694 4.40308 15 4.40308C14.6306 4.40308 14.3312 4.70251 14.3312 5.07187V6.03579H12.9374V5.07187C12.9374 4.70251 12.6379 4.40308 12.2686 4.40308C11.8992 4.40308 11.5998 4.70251 11.5998 5.07187V6.03579H3.03841V2.86706C3.03841 2.56878 3.28108 2.3261 3.57927 2.3261ZM28.6624 21.1332C28.6624 21.4314 28.4197 21.674 28.1216 21.674H1.87854C1.58025 21.674 1.33758 21.4314 1.33758 21.1332V7.91432C1.33758 7.61604 1.58025 7.37337 1.87854 7.37337H28.1216C28.4197 7.37337 28.6624 7.61604 28.6624 7.91432V21.1332Z" />
<path d="M7.03163 10.1244C4.60574 10.1244 2.63223 12.0979 2.63223 14.5237C2.63223 16.9496 4.60574 18.9231 7.03163 18.9231C9.45752 18.9231 11.431 16.9496 11.431 14.5237C11.4309 12.0979 9.45742 10.1244 7.03163 10.1244ZM7.03163 17.5855C5.34332 17.5855 3.96981 16.212 3.96981 14.5237C3.96981 12.8355 5.34332 11.462 7.03163 11.462C8.71994 11.462 10.0934 12.8355 10.0934 14.5237C10.0934 16.212 8.71994 17.5855 7.03163 17.5855Z" />
<path d="M22.9682 10.1244C20.5423 10.1244 18.5688 12.0979 18.5688 14.5237C18.5688 16.9496 20.5423 18.9231 22.9682 18.9231C25.3941 18.9231 27.3676 16.9496 27.3676 14.5237C27.3676 12.0979 25.3941 10.1244 22.9682 10.1244ZM22.9682 17.5855C21.2799 17.5855 19.9064 16.212 19.9064 14.5237C19.9064 12.8355 21.2799 11.462 22.9682 11.462C24.6566 11.462 26.0301 12.8355 26.0301 14.5237C26.0301 16.212 24.6566 17.5855 22.9682 17.5855Z" />
<path d="M17.5784 8.698H12.4214C12.0521 8.698 11.7527 8.99742 11.7527 9.36679C11.7527 9.73615 12.0521 10.0356 12.4214 10.0356H17.5784C17.9478 10.0356 18.2472 9.73615 18.2472 9.36679C18.2472 8.99742 17.9479 8.698 17.5784 8.698Z" />
<path d="M17.1818 15.6705H12.8181C12.4488 15.6705 12.1494 15.97 12.1494 16.3393V19.4692C12.1494 19.8385 12.4488 20.1379 12.8181 20.1379H17.1818C17.5512 20.1379 17.8506 19.8385 17.8506 19.4692V16.3393C17.8506 15.97 17.5512 15.6705 17.1818 15.6705ZM16.513 18.8004H13.4869V17.0081H16.513V18.8004Z" />
</svg>
