<svg width="21" height="19" viewBox="0 0 21 19"  xmlns="http://www.w3.org/2000/svg">
<path d="M19.3341 1.8594C18.247 0.660369 16.7554 0 15.1336 0C13.9214 0 12.8113 0.389737 11.834 1.15829C11.3408 1.54624 10.894 2.02086 10.5 2.57484C10.1062 2.02103 9.65918 1.54624 9.16587 1.15829C8.18871 0.389737 7.07856 0 5.86636 0C4.24464 0 2.75285 0.660369 1.66578 1.8594C0.591682 3.04441 0 4.66332 0 6.41811C0 8.22423 0.661858 9.87752 2.08282 11.6212C3.35399 13.181 5.18095 14.7644 7.29662 16.5979C8.01904 17.224 8.83791 17.9338 9.68818 18.6898C9.9128 18.8899 10.201 19 10.5 19C10.7988 19 11.0872 18.8899 11.3115 18.6901C12.1618 17.9339 12.9811 17.2239 13.7039 16.5974C15.8192 14.7642 17.6462 13.181 18.9173 11.6211C20.3383 9.87752 21 8.22423 21 6.41795C21 4.66332 20.4083 3.04441 19.3341 1.8594Z" />
</svg>
