<svg width="22" height="22" viewBox="0 0 22 22" fill="none" xmlns="http://www.w3.org/2000/svg">
<path d="M21.0036 15.3859C22.1749 12.9265 22.3184 10.1582 21.4079 7.59045C19.5285 2.29079 13.6871 -0.491371 8.38749 1.38843C5.82202 2.29853 3.78512 4.14157 2.62504 6.54491L1.50328 3.3816C1.36049 2.97918 0.918595 2.76829 0.515394 2.91107C0.11258 3.05386 -0.0983077 3.49614 0.0448636 3.89934L1.84456 8.97457C1.91305 9.16766 2.05584 9.32592 2.2408 9.41453C2.34566 9.46445 2.45943 9.4896 2.57358 9.4896C2.66103 9.4896 2.74848 9.47489 2.83206 9.4451L8.18976 7.54479C8.59257 7.40201 8.80346 6.95934 8.66029 6.55652C8.5175 6.1541 8.07406 5.94321 7.67241 6.08599L3.92209 7.41632C4.88831 5.28114 6.65899 3.64357 8.90407 2.84684C13.4 1.25261 18.3538 3.61261 19.9484 8.10819C21.543 12.6034 19.1826 17.5583 14.6874 19.1529C11.4332 20.306 7.81016 19.4195 5.4579 16.8908C5.16691 16.5773 4.67703 16.5603 4.36399 16.8513C4.05095 17.1423 4.03354 17.6322 4.32452 17.9448C6.29061 20.0583 9.00932 21.1991 11.7934 21.1991C12.9353 21.1991 14.0884 21.0071 15.204 20.6109C17.7729 19.7008 19.8319 17.8454 21.0036 15.3859Z" fill="#B3BACE"/>
</svg>
