<svg width="21" height="21" viewBox="0 0 21 21"  xmlns="http://www.w3.org/2000/svg">
<g clip-path="url(#clip0)">
<path d="M19.5605 3.81316L15.9716 0.224228C15.7545 0.00710421 15.4224 -0.0610131 15.1372 0.0581921C14.8519 0.177397 14.6646 0.454124 14.6646 0.764909V3.58752H6.45647C3.56574 3.58752 1.2157 5.93756 1.2157 8.82829C1.2157 9.24977 1.56054 9.59461 1.98202 9.59461C2.40349 9.59461 2.74834 9.24977 2.74834 8.82829C2.74834 6.78477 4.41295 5.12016 6.45647 5.12016H15.4267C15.8481 5.12016 16.193 4.77531 16.193 4.35384V2.61259L17.9342 4.35384L14.886 7.40208C14.588 7.70436 14.588 8.18969 14.886 8.4877C15.184 8.78572 15.6693 8.78572 15.9716 8.4877L19.5605 4.89878C19.8585 4.60076 19.8585 4.11543 19.5605 3.81316Z" fill="#B3BACE"/>
<path d="M19.0199 11.404C18.5984 11.404 18.2536 11.7488 18.2536 12.1703C18.2536 14.2138 16.589 15.8784 14.5454 15.8784H5.571C5.14952 15.8784 4.80468 16.2233 4.80468 16.6448V18.386L3.06343 16.6448L6.11168 13.5965C6.40969 13.2985 6.40969 12.8132 6.11168 12.5109C5.81367 12.2129 5.32833 12.2129 5.02606 12.5109L1.43713 16.0998C1.13912 16.3978 1.13912 16.8832 1.43713 17.1854L5.03032 20.7744C5.17507 20.9191 5.3709 21 5.571 21C5.66892 21 5.77109 20.983 5.86475 20.9404C6.15 20.8212 6.33732 20.5445 6.33732 20.2337V17.4111H14.5454C17.4362 17.4111 19.7862 15.061 19.7862 12.1703C19.7862 11.7488 19.4414 11.404 19.0199 11.404Z" fill="#B3BACE"/>
</g>
<defs>
<clipPath id="clip0">
<rect width="21" height="21" fill="white"/>
</clipPath>
</defs>
</svg>
